<svg width="241" height="239" viewBox="0 0 241 239" fill="none" xmlns="http://www.w3.org/2000/svg">
<mask id="mask0_18_4" style="mask-type:alpha" maskUnits="userSpaceOnUse" x="-5" y="3" width="230" height="236">
<rect width="230" height="236" transform="matrix(-1 0 0 1 225 3)" fill="#C4C4C4"/>
</mask>
<g mask="url(#mask0_18_4)">
<g clip-path="url(#clip0_18_4)">
<path d="M152.84 52.5273C152.84 52.5273 170.5 79.9869 170.972 87.8999C171.444 95.8128 173.173 100.844 170.186 101.001C167.199 101.158 163.373 99.1143 162.378 95.8128C161.382 92.5114 158.028 83.1835 158.028 83.1835C158.028 83.1835 150.744 71.9691 148.7 69.9254C146.657 67.8816 137.329 67.8816 131.198 63.9514C125.066 60.0211 123.285 58.6062 123.285 58.6062L152.84 52.5273Z" fill="#E28971"/>
<path d="M138.956 110.643C138.956 110.643 145.087 101.63 145.245 96.1273C145.402 90.6249 142.1 74.1701 142.1 74.1701L138.17 52.5273L113.069 60.7547C113.069 60.7547 127.742 73.8557 129.785 76.7903C131.829 79.7249 134.345 89.9436 134.187 94.5551C134.03 99.1667 132.93 107.184 134.345 108.914C135.812 110.643 138.956 110.643 138.956 110.643Z" fill="#E28971"/>
<path d="M120.98 61.6973C120.98 61.6973 123.023 77.1564 123.338 82.2395C123.652 87.2703 121.923 100.843 120.194 102.101C118.464 103.358 114.534 103.358 113.748 99.8996C112.962 96.4409 110.289 71.4968 107.302 68.5098C104.315 65.5227 100.018 61.6973 100.018 61.6973H120.98Z" fill="#E28971"/>
<path d="M0.710922 26.0097C1.07776 25.4856 1.60179 25.1188 2.23064 25.014C6.37053 24.2279 23.0873 21.2409 32.1532 23.2847C40.7474 25.276 89.9021 36.5428 95.1425 36.8048C100.33 37.0668 113.589 37.0668 122.602 39.425C131.615 41.7832 151.005 37.5385 161.171 42.0452C171.338 46.5519 193.871 57.6091 196.02 59.4956C198.168 61.3822 194.343 65.4173 189.626 65.6269C185.329 65.8365 158.446 57.1899 153.311 55.513C152.787 55.3557 152.158 55.3557 151.634 55.5654C148.961 56.7182 140.157 60.3341 129.729 63.4783C123.231 65.4173 116.995 65.9413 112.488 65.9937C110.287 65.9937 109.291 68.7711 110.968 70.186C120.768 78.5706 140.681 95.9162 141.572 99.4797C142.777 104.196 141.834 111.899 131.144 105.925C120.506 99.9513 108.663 88.3177 98.968 86.6932C89.2733 85.0163 73.3949 87.1648 62.9666 81.5052C52.5382 75.8456 43.3152 67.0418 34.7734 63.2687C27.6465 60.0721 8.93831 66.2557 3.06909 68.2995C1.96861 68.6663 0.763336 68.2471 0.18689 67.2514C-1.49004 64.212 -4.63425 57.1375 -5.00108 45.6611C-5.26309 35.8091 -0.913589 28.3678 0.710922 26.0097Z" fill="#F99573"/>
<path d="M185.481 128.127L212.281 140.334L200.074 167.134L173.274 154.927L185.481 128.127Z" fill="#951DDB"/>
<path d="M199.89 130.66L218.727 139.24L210.147 158.077L191.31 149.497L199.89 130.66Z" fill="#AEF7FF"/>
<path d="M217.244 146.695C212.961 146.695 209.488 143.223 209.488 138.939C209.488 134.656 212.961 131.184 217.244 131.184C221.528 131.184 225 134.656 225 138.939C225 143.223 221.528 146.695 217.244 146.695Z" fill="#04AA9A"/>
<path d="M121.445 157.91C112.734 157.91 105.672 150.848 105.672 142.137C105.672 133.425 112.734 126.363 121.445 126.363C130.157 126.363 137.219 133.425 137.219 142.137C137.219 150.848 130.157 157.91 121.445 157.91Z" fill="#ED4235"/>
<path d="M154.516 206.332L148.175 167.92L116.523 197.685L154.516 206.332Z" fill="#3E4BFF"/>
<path d="M126.112 146.383L130.042 160.899L141.047 148.217L126.112 146.383Z" fill="#951DDB"/>
<path d="M165.422 203.292L147.238 191.973L146.347 212.987L165.422 203.292Z" stroke="#F79E79" stroke-width="2" stroke-miterlimit="10"/>
<path d="M139.531 180.34C136.956 180.34 134.867 178.251 134.867 175.676C134.867 173.1 136.956 171.012 139.531 171.012C142.107 171.012 144.195 173.1 144.195 175.676C144.195 178.251 142.107 180.34 139.531 180.34Z" fill="#E8A90C"/>
<path d="M123.335 154.139C122.061 154.139 121.029 153.107 121.029 151.833C121.029 150.56 122.061 149.527 123.335 149.527C124.608 149.527 125.641 150.56 125.641 151.833C125.641 153.107 124.608 154.139 123.335 154.139Z" fill="#FACB41"/>
<path d="M189.94 132.389L185.643 65.1024C185.643 65.1024 183.023 55.3029 191.25 56.7178" stroke="#3A3280" stroke-miterlimit="10"/>
<path d="M147.598 171.012L161.904 94.4505C161.904 94.4505 168.979 95.2365 171.18 90.625" stroke="#3A3280" stroke-miterlimit="10"/>
<path d="M129.155 132.39L127.793 103.987C127.793 103.987 137.487 102.049 135.548 92.4062" stroke="#3A3280" stroke-miterlimit="10"/>
<ellipse cx="28.7245" cy="216.232" rx="28.9898" ry="29.927" transform="rotate(-14.9381 28.7245 216.232)" fill="#04AA9A"/>
</g>
</g>
<circle cx="15" cy="15" r="15" transform="matrix(0.842503 -0.538691 0.519073 0.85473 200 16.1602)" fill="#04AA9A"/>
<defs>
<clipPath id="clip0_18_4">
<rect width="230" height="215.478" fill="white" transform="matrix(-1 0 0 1 225 23.5234)"/>
</clipPath>
</defs>
</svg>
