<svg width="253" height="266" viewBox="0 0 253 266" fill="none" xmlns="http://www.w3.org/2000/svg">
<mask id="mask0_1_984" style="mask-type:alpha" maskUnits="userSpaceOnUse" x="-47" y="0" width="300" height="300">
<rect width="300" height="300" transform="matrix(-1 0 0 1 253 0)" fill="#C4C4C4"/>
</mask>
<g mask="url(#mask0_1_984)">
<ellipse cx="248.686" cy="3.98659" rx="29.1725" ry="30.1156" transform="rotate(-31.9286 248.686 3.98659)" fill="#A94B2D"/>
<g clip-path="url(#clip0_1_984)">
<path d="M50.4431 106.99L57.8325 130.674L71.6009 132.884L83.6641 112.295L79.1799 99.0949L76.3378 90.8844L59.8536 88.2949L58.2115 91.5791L50.4431 106.99Z" fill="#EA9365"/>
<path d="M58.2113 91.5791C61.8744 93.1581 64.906 96.5686 68.6955 97.8318C70.8428 98.5265 74.127 99.0949 76.4007 99.1581C78.4218 99.2212 78.4849 99.2212 79.0534 99.0949C79.1165 99.0949 79.1165 99.0949 79.1797 99.1581L76.3376 90.8844L59.7902 88.2949L58.2113 91.5791Z" fill="#DB8965"/>
<path d="M27.1976 155.874L15.1976 179.685L-5.13922 220.106L-5.45502 220.8C-4.50764 222.442 -3.81291 224.274 -3.3708 226.042C-3.24449 226.485 119.977 227.937 119.977 227.937L114.734 160.8C114.734 160.8 112.524 143.748 113.219 130.927C92.3766 113.558 82.2081 106.99 82.2081 106.99C81.766 106.99 67.0502 124.8 67.0502 124.8L52.3345 103.137C51.3239 102.506 6.29235 113.432 0.734459 138.569" fill="#00CDF1"/>
<path d="M23.9772 193.2C41.2825 191.116 39.8299 175.832 39.9562 171.032C40.0825 166.232 39.6404 156 39.6404 156L96.7983 156.063C96.7983 156.063 96.6088 160.989 97.493 172.8C98.693 189.158 117.325 194.021 117.325 194.021C117.325 194.021 117.388 195.095 117.451 195.411L119.914 227.305L14.5036 226.232L23.9772 193.2Z" fill="#AEF7FF" stroke="white" stroke-width="0.75" stroke-miterlimit="10"/>
<path d="M0.866447 138.316L-20.3546 205.327C-23.5757 215.432 -17.8915 226.295 -7.84936 229.453C2.25591 232.674 13.1191 226.99 16.277 216.948L37.6875 149.559" fill="#00CDF1"/>
<path d="M53.4085 232.674C52.2717 243.032 72.9875 256.8 102.166 260.084C131.345 263.369 157.808 254.842 159.008 244.484C160.145 234.126 135.893 226.295 106.966 221.432C77.9769 216.569 54.5454 222.316 53.4085 232.674Z" fill="#FF5630"/>
<path d="M103.835 254.801C73.746 251.428 50.217 240.994 51.2817 231.496C52.3464 221.997 77.6016 217.032 107.691 220.405C137.78 223.777 161.309 234.212 160.244 243.71C159.179 253.208 133.924 258.173 103.835 254.801Z" fill="#4646FF"/>
<path d="M41.6597 218.527L51.386 222.696C52.3966 223.138 53.4702 223.138 54.4808 222.696C56.3123 221.875 59.5334 220.801 62.2492 221.559C66.2913 222.696 81.2597 229.327 84.4808 230.591C85.6808 231.033 86.5018 237.412 79.8702 236.338C73.2387 235.264 68.3124 231.854 62.6913 231.98C60.2913 232.043 51.7018 233.748 55.4281 238.927C59.1545 244.106 66.1018 247.58 69.5123 248.843C72.9229 250.106 84.6071 253.454 84.6071 253.454C84.6071 253.454 89.2176 254.969 85.6808 257.117C81.9545 259.391 70.9018 256.233 68.4387 255.727C66.6071 255.348 60.3544 252.38 60.3544 252.38C60.3544 252.38 66.3545 255.285 67.9966 255.727C71.3439 256.675 75.0071 257.18 77.8492 257.748C78.9229 257.938 79.4281 258.885 78.6071 259.643C77.0913 260.969 73.9966 261.033 71.2808 260.717C66.1018 260.085 61.0492 258.948 57.386 256.612C53.1545 253.896 49.1123 246.633 45.2597 244.864C41.4071 243.096 31.6176 238.422 31.6176 238.422L41.6597 218.527Z" fill="#EA9365"/>
<path d="M-7.35067 231.031C3.63881 235.262 38.123 243.726 38.123 243.726L50.3125 215.81C50.2493 215.747 46.9651 213.852 36.7335 209.368L7.23879 195.662C-1.85595 190.483 -12.2138 194.526 -18.6559 202.799C-25.4138 211.452 -19.0349 226.547 -7.35067 231.031Z" fill="#00CDF1"/>
<path d="M149.663 114.694L146.568 104.715C146.568 104.715 151.242 98.8417 153.263 94.9259C155.347 90.9469 157.747 89.0522 161.852 85.9575C165.958 82.8627 171.452 78.3785 171.326 76.168C171.137 73.9574 168.547 73.389 163.937 76.168C159.263 78.9469 155.663 81.6627 153.958 80.968C152.252 80.2732 157.558 72.568 161.158 66.8838C164.758 61.1996 165.389 59.3048 164.315 57.9785C163.305 56.7153 160.589 56.3996 158 60.0627C155.41 63.7259 147.579 75.4101 146.505 75.6627C145.431 75.9153 151.937 60.8206 153.326 58.2311C154.715 55.6417 155.663 51.6627 153.958 51.0311C152.252 50.3995 150.61 50.3995 148.652 53.4943C146.694 56.589 138.61 74.3996 138.61 74.3996C138.61 74.3996 140.189 65.6206 141.2 60.568C142.21 55.5153 139.242 51.9153 137.6 56.7153C135.894 61.5153 132.421 68.7153 132.421 68.7153C132.421 68.7153 129.705 79.2627 126.484 81.9785C123.263 84.6943 120.8 92.6522 123.263 97.0732C125.726 101.431 130.589 109.326 130.589 109.326L149.663 114.694Z" fill="#EA9365"/>
<path d="M127.748 114.694C127.748 114.694 126.358 107.873 123.642 103.515C120.927 99.1569 118.969 90.2516 120.548 87.1569C122.127 84.0622 126.421 76.9885 126.421 74.5253C126.421 72.0622 127.432 67.0095 126.295 64.799C125.158 62.5885 122.948 60.2516 124.084 59.3674C125.221 58.4832 129.137 58.6095 132.927 66.3148C135.769 72.1253 132.99 75.9148 131.158 80.9674C129.327 86.0201 130.716 92.3358 131.916 96.6937C133.053 101.052 136.4 108.188 139.684 110.525C142.969 112.799 149.727 114.757 149.727 114.757" fill="#EA9365"/>
<path d="M153.516 167.62C155.031 152.841 153.705 108.315 153.705 108.315L117.705 103.768C117.705 103.831 115.937 114.631 115.937 114.694L105.831 161.81C102.61 174.504 110.947 185.81 123.074 190.799C135.831 196.041 151.937 183.283 153.516 167.62Z" fill="#00CDF1"/>
<path d="M59.8522 59.1156C53.4101 68.8419 53.5996 77.8103 57.7049 85.7682C61.6206 93.3472 69.0732 97.8314 77.9785 90.4419C86.9469 83.1156 91.6837 59.9366 85.9995 52.9893C80.3153 46.1051 66.2943 49.4524 59.8522 59.1156Z" fill="#EA9365"/>
<path d="M117.703 103.77C116.882 108.822 116.819 109.264 115.619 116.148L105.514 163.264C102.987 172.612 108.293 181.706 116.693 187.391" stroke="#FACB41" stroke-miterlimit="10" stroke-linecap="round"/>
<path d="M56.7578 74.9054C56.7578 74.9054 55.0526 77.3685 55.1789 78.5054C55.3052 79.6422 54.5473 75.0317 54.7999 74.2106C55.1157 73.3264 56.7578 74.9054 56.7578 74.9054Z" fill="#642B7E"/>
<path d="M94.401 51.9793C95.4747 55.2003 92.2536 61.9582 88.0852 62.5898C80.6957 63.7266 72.6747 56.7161 69.5799 56.5898C65.3483 56.4003 60.9905 64.7372 58.022 65.4319C55.0536 66.1266 55.4326 62.8424 55.4326 62.8424C54.6115 62.1477 60.3589 53.3687 63.5799 51.3477C70.2747 47.2424 78.3589 47.6845 81.4536 48.8845C85.2431 50.4003 89.4115 49.4529 90.4852 49.3898C91.5589 49.2635 93.5168 49.3266 94.401 51.9793Z" fill="#642B7E"/>
<path d="M49.6454 69.8656C48.815 66.3341 50.3716 62.947 53.1221 62.3002C55.8726 61.6535 58.7755 63.9921 59.6059 67.5236C60.4362 71.0551 58.8797 74.4422 56.1291 75.089C53.3786 75.7357 50.4758 73.3971 49.6454 69.8656Z" fill="#EA9365"/>
<path d="M52.0241 65.0528C53.2241 63.7896 58.024 65.1159 57.203 68.7159" stroke="#231F20" stroke-miterlimit="10" stroke-linecap="round"/>
<path d="M87.7656 70.2305C87.7656 70.2305 86.8182 79.641 86.2498 82.1673C85.934 83.4305 81.1972 80.9041 81.1972 80.9041" stroke="#FACB41" stroke-miterlimit="10" stroke-linecap="round"/>
<path d="M83.6641 65.3062C83.6641 65.3062 79.8115 63.6009 77.2852 65.7483" stroke="#231F20" stroke-miterlimit="10" stroke-linecap="round"/>
<path d="M76.4019 80.4004C76.4019 80.4004 76.9072 83.3057 79.8125 83.1162" stroke="#231F20" stroke-miterlimit="10" stroke-linecap="round"/>
<path d="M80.4453 72.5041C80.0267 72.5041 79.6874 72.1647 79.6874 71.7462C79.6874 71.3276 80.0267 70.9883 80.4453 70.9883C80.8638 70.9883 81.2031 71.3276 81.2031 71.7462C81.2031 72.1647 80.8638 72.5041 80.4453 72.5041Z" fill="#231F20"/>
<path d="M212.376 226.486L186.987 270.444C185.092 273.728 187.429 277.833 191.218 277.833H237.323C241.113 277.833 243.45 273.728 241.555 270.444L216.166 226.486C215.345 225.033 213.26 225.033 212.376 226.486Z" stroke="#C1231F" stroke-miterlimit="10"/>
<path d="M214.336 228.191C212.697 228.191 211.368 226.862 211.368 225.222C211.368 223.583 212.697 222.254 214.336 222.254C215.975 222.254 217.304 223.583 217.304 225.222C217.304 226.862 215.975 228.191 214.336 228.191Z" fill="#C1231F"/>
<path d="M229.492 250.105H198.671" stroke="#C1231F" stroke-miterlimit="10"/>
<path d="M202.016 243.98L193.047 238.675C189.574 236.654 185.089 237.79 183.068 241.264C181.047 244.738 182.184 249.222 185.658 251.243L194.626 256.548" stroke="#C1231F" stroke-miterlimit="10"/>
<path d="M247.367 235.643L232.651 255.537" stroke="#C1231F" stroke-miterlimit="10"/>
<path d="M178.656 260.526C176.319 265.389 170.256 267.284 165.077 264.757C159.898 262.231 157.625 256.294 159.962 251.494L178.656 260.526Z" stroke="#FACB41" stroke-width="2" stroke-miterlimit="10"/>
<path d="M121.941 241.959L131.036 223.58C131.604 222.38 131.162 220.99 129.962 220.422L116.32 213.601C109.625 206.464 107.983 213.285 106.972 217.896L102.488 226.864C99.7723 229.769 95.8565 235.075 105.078 236.211L118.72 243.032C119.92 243.601 121.372 243.159 121.941 241.959Z" fill="white" stroke="#47358F" stroke-width="2" stroke-miterlimit="10"/>
<path d="M132.606 252.633L148.395 239.559C149.406 238.738 149.532 237.222 148.711 236.212L138.985 224.464C135.764 215.243 131.469 220.801 128.69 224.591L120.985 231.033C117.322 232.612 111.574 235.896 119.595 240.633L129.258 252.317C130.079 253.327 131.595 253.454 132.606 252.633Z" fill="white" stroke="#47358F" stroke-width="2" stroke-miterlimit="10"/>
<path d="M106.275 239.117C114.801 236.654 118.527 238.738 129.58 243.285C133.875 245.054 134.443 249.791 130.654 251.117C127.559 252.254 124.275 252.822 119.727 253.391C116.696 253.769 108.485 254.338 99.5801 252.38C86.3801 249.412 75.5801 242.022 80.3169 238.485C82.338 237.033 86.0011 236.022 90.359 236.464C97.0538 237.096 96.1064 242.022 106.275 239.117Z" fill="white" stroke="#47358F" stroke-miterlimit="10"/>
<path d="M107.41 248.717C102.212 248.717 97.9993 247.416 97.9993 245.812C97.9993 244.207 102.212 242.906 107.41 242.906C112.607 242.906 116.82 244.207 116.82 245.812C116.82 247.416 112.607 248.717 107.41 248.717Z" fill="#FACB41"/>
<path d="M97.9999 245.809C97.9999 242.525 102.168 240.125 107.347 240.125C112.526 240.125 116.758 242.525 116.758 245.809H97.9999Z" fill="#FACB41"/>
<path d="M91.9337 155.874L96.7969 155.684L86.6284 110.147L82.2705 107.053L91.9337 155.874Z" fill="#4646FF" stroke="white" stroke-width="0.75" stroke-miterlimit="10"/>
<path d="M44.5695 155.873H40.1484C39.8958 155.873 39.58 155.936 39.6432 155.683L48.359 103.957L52.1484 103.199L44.5695 155.873Z" fill="#3D4FF1" stroke="white" stroke-width="0.75" stroke-miterlimit="10"/>
<path d="M93.3872 161.241C92.3756 161.241 91.5556 160.421 91.5556 159.41C91.5556 158.398 92.3756 157.578 93.3872 157.578C94.3987 157.578 95.2188 158.398 95.2188 159.41C95.2188 160.421 94.3987 161.241 93.3872 161.241Z" fill="#ED4235"/>
<path d="M43.2465 160.483C42.235 160.483 41.415 159.663 41.415 158.652C41.415 157.64 42.235 156.82 43.2465 156.82C44.2581 156.82 45.0781 157.64 45.0781 158.652C45.0781 159.663 44.2581 160.483 43.2465 160.483Z" fill="#ED4235"/>
<path d="M66.6739 191.622H70.0213C77.5371 191.622 83.7266 185.432 83.7266 177.916V168.127H53.0318V177.916C52.9686 185.432 59.1581 191.622 66.6739 191.622Z" stroke="#FACB41" stroke-width="0.75" stroke-miterlimit="10"/>
<path d="M50.1875 215.685L8.12435 196.043" stroke="#FACB41" stroke-miterlimit="10" stroke-linecap="round"/>
<path d="M21.3931 202.104L34.6562 157.578" stroke="#FACB41" stroke-miterlimit="10" stroke-linecap="round"/>
<path d="M136.653 75.1582C137.032 75.1582 137.032 75.7903 136.653 75.7903C136.274 75.7903 136.274 75.1582 136.653 75.1582Z" fill="#642B7E"/>
<path d="M135.2 76.2947C135.579 76.2947 135.579 76.9267 135.2 76.9267C134.82 76.9267 134.82 76.2947 135.2 76.2947Z" fill="#642B7E"/>
<path d="M135.012 77.6836C135.392 77.6836 135.392 78.3157 135.012 78.3157C134.633 78.3157 134.633 77.6836 135.012 77.6836Z" fill="#642B7E"/>
<path d="M132.669 77.0527C133.048 77.0527 133.048 77.6848 132.669 77.6848C132.289 77.6848 132.289 77.0527 132.669 77.0527Z" fill="#642B7E"/>
<path d="M130.278 82.168C130.657 82.168 130.657 82.8 130.278 82.8C129.899 82.8 129.899 82.168 130.278 82.168Z" fill="#642B7E"/>
<path d="M134.572 84.7578C135.33 84.7578 135.33 86.021 134.572 86.021C133.814 85.9578 133.814 84.7578 134.572 84.7578Z" fill="#642B7E"/>
<path d="M136.463 86.9688C137.221 86.9688 137.221 88.2319 136.463 88.2319C135.705 88.1687 135.705 86.9688 136.463 86.9688Z" fill="#642B7E"/>
<path d="M134.064 88.1055C134.822 88.1055 134.822 89.3686 134.064 89.3686C133.306 89.3055 133.243 88.1055 134.064 88.1055Z" fill="#642B7E"/>
<path d="M131.728 90.8203C132.486 90.8203 132.486 92.0835 131.728 92.0835C130.971 92.0835 130.971 90.8203 131.728 90.8203Z" fill="#642B7E"/>
<path d="M134.51 93.1582C135.268 93.1582 135.268 94.4214 134.51 94.4214C133.689 94.3582 133.689 93.1582 134.51 93.1582Z" fill="#642B7E"/>
<path d="M138.674 89.875C139.432 89.875 139.432 91.1381 138.674 91.1381C137.916 91.1381 137.916 89.875 138.674 89.875Z" fill="#642B7E"/>
<path d="M136.966 94.1055C137.345 94.1055 137.345 94.7375 136.966 94.7375C136.586 94.7375 136.586 94.1055 136.966 94.1055Z" fill="#642B7E"/>
<path d="M135.512 96.9473C135.892 96.9473 135.892 97.5793 135.512 97.5793C135.133 97.5793 135.133 96.9473 135.512 96.9473Z" fill="#642B7E"/>
<path d="M137.536 100.736C137.915 100.736 137.915 101.368 137.536 101.368C137.157 101.368 137.157 100.736 137.536 100.736Z" fill="#642B7E"/>
<path d="M130.778 101.242C131.157 101.242 131.157 101.874 130.778 101.874C130.399 101.874 130.399 101.242 130.778 101.242Z" fill="#642B7E"/>
<path d="M130.466 107.559C130.845 107.559 130.845 108.191 130.466 108.191C130.086 108.191 130.086 107.559 130.466 107.559Z" fill="#642B7E"/>
<path d="M134.442 107.559C134.821 107.559 134.821 108.191 134.442 108.191C134.063 108.191 134.063 107.559 134.442 107.559Z" fill="#642B7E"/>
<path d="M125.853 109.895C126.611 109.895 126.611 111.158 125.853 111.158C125.096 111.095 125.032 109.895 125.853 109.895Z" fill="#642B7E"/>
<path d="M128.697 115.074C129.455 115.074 129.455 116.337 128.697 116.337C127.939 116.274 127.876 115.074 128.697 115.074Z" fill="#642B7E"/>
<path d="M135.518 115.705C136.275 115.705 136.275 116.968 135.518 116.968C134.76 116.905 134.76 115.705 135.518 115.705Z" fill="#642B7E"/>
<path d="M129.83 118.736C130.588 118.736 130.588 119.999 129.83 119.999C129.072 119.936 129.072 118.736 129.83 118.736Z" fill="#642B7E"/>
<path d="M132.799 121.705C133.557 121.705 133.557 122.968 132.799 122.968C132.041 122.905 131.978 121.705 132.799 121.705Z" fill="#642B7E"/>
<path d="M137.728 133.262C138.486 133.262 138.486 134.525 137.728 134.525C136.971 134.462 136.971 133.262 137.728 133.262Z" fill="#642B7E"/>
<path d="M127.307 132.506C128.064 132.506 128.064 133.769 127.307 133.769C126.549 133.769 126.549 132.506 127.307 132.506Z" fill="#642B7E"/>
<path d="M131.096 141.979C131.854 141.979 131.854 143.242 131.096 143.242C130.338 143.242 130.338 141.979 131.096 141.979Z" fill="#642B7E"/>
<path d="M128.572 146.211C129.33 146.211 129.33 147.474 128.572 147.474C127.814 147.411 127.814 146.211 128.572 146.211Z" fill="#642B7E"/>
<path d="M123.455 145.77C124.213 145.77 124.213 147.033 123.455 147.033C122.634 147.033 122.634 145.77 123.455 145.77Z" fill="#642B7E"/>
<path d="M131.033 195.473C131.791 195.473 131.791 196.736 131.033 196.736C130.212 196.673 130.212 195.473 131.033 195.473Z" fill="#642B7E"/>
<path d="M109.939 193.895C110.697 193.895 110.697 195.158 109.939 195.158C109.182 195.095 109.182 193.895 109.939 193.895Z" fill="#642B7E"/>
<path d="M100.588 201.979C101.346 201.979 101.346 203.242 100.588 203.242C99.8299 203.242 99.7668 201.979 100.588 201.979Z" fill="#642B7E"/>
<path d="M97.4316 211.389C98.1895 211.389 98.1895 212.652 97.4316 212.652C96.6737 212.589 96.6105 211.389 97.4316 211.389Z" fill="#642B7E"/>
<path d="M106.588 221.873C107.346 221.873 107.346 223.136 106.588 223.136C105.83 223.136 105.767 221.873 106.588 221.873Z" fill="#642B7E"/>
<path d="M139.619 207.789C140.377 207.789 140.377 209.052 139.619 209.052C138.861 208.989 138.861 207.789 139.619 207.789Z" fill="#642B7E"/>
<path d="M128.885 206.021C129.643 206.021 129.643 207.285 128.885 207.285C128.127 207.221 128.127 206.021 128.885 206.021Z" fill="#642B7E"/>
<path d="M144.166 216.127C144.924 216.127 144.924 217.39 144.166 217.39C143.408 217.327 143.345 216.127 144.166 216.127Z" fill="#642B7E"/>
<path d="M135.197 221.369C135.955 221.369 135.955 222.632 135.197 222.632C134.439 222.569 134.439 221.369 135.197 221.369Z" fill="#642B7E"/>
<path d="M139.119 230.527C139.877 230.527 139.877 231.791 139.119 231.791C138.361 231.727 138.298 230.527 139.119 230.527Z" fill="#642B7E"/>
<path d="M141.518 234.441C142.275 234.441 142.275 235.705 141.518 235.705C140.76 235.641 140.76 234.441 141.518 234.441Z" fill="#642B7E"/>
<path d="M132.674 236.842C133.432 236.842 133.432 238.105 132.674 238.105C131.916 238.042 131.916 236.842 132.674 236.842Z" fill="#642B7E"/>
<path d="M130.088 228.633C130.846 228.633 130.846 229.896 130.088 229.896C129.267 229.833 129.267 228.633 130.088 228.633Z" fill="#642B7E"/>
<path d="M123.135 242.336C123.893 242.336 123.893 243.599 123.135 243.599C122.314 243.536 122.314 242.336 123.135 242.336Z" fill="#642B7E"/>
<path d="M119.346 236.842C120.104 236.842 120.104 238.105 119.346 238.105C118.525 238.042 118.525 236.842 119.346 236.842Z" fill="#642B7E"/>
<path d="M109.744 242.336C110.502 242.336 110.502 243.599 109.744 243.599C108.986 243.536 108.923 242.336 109.744 242.336Z" fill="#642B7E"/>
<path d="M102.481 244.736C102.86 244.736 102.86 245.368 102.481 245.368C102.102 245.368 102.102 244.736 102.481 244.736Z" fill="#642B7E"/>
<path d="M106.466 245.559C106.845 245.559 106.845 246.191 106.466 246.191C106.086 246.191 106.086 245.559 106.466 245.559Z" fill="#642B7E"/>
<path d="M114.864 244.609C115.243 244.609 115.243 245.241 114.864 245.241C114.485 245.241 114.485 244.609 114.864 244.609Z" fill="#642B7E"/>
<path d="M114.044 242.211C114.423 242.211 114.423 242.843 114.044 242.843C113.664 242.843 113.664 242.211 114.044 242.211Z" fill="#642B7E"/>
<path d="M109.114 240.82C109.493 240.82 109.493 241.452 109.114 241.452C108.735 241.452 108.735 240.82 109.114 240.82Z" fill="#642B7E"/>
<path d="M112.653 235.643C113.032 235.643 113.032 236.275 112.653 236.275C112.274 236.275 112.274 235.643 112.653 235.643Z" fill="#642B7E"/>
<path d="M111.075 232.105C111.454 232.105 111.454 232.738 111.075 232.738C110.696 232.738 110.696 232.105 111.075 232.105Z" fill="#642B7E"/>
<path d="M118.653 229.137C119.032 229.137 119.032 229.769 118.653 229.769C118.274 229.769 118.274 229.137 118.653 229.137Z" fill="#642B7E"/>
<path d="M113.286 225.348C113.665 225.348 113.665 225.98 113.286 225.98C112.907 225.98 112.907 225.348 113.286 225.348Z" fill="#642B7E"/>
<path d="M124.966 233.053C125.345 233.053 125.345 233.685 124.966 233.685C124.586 233.685 124.586 233.053 124.966 233.053Z" fill="#642B7E"/>
<path d="M95.0906 232.422C95.4698 232.422 95.4698 233.054 95.0906 233.054C94.7114 233.054 94.7114 232.422 95.0906 232.422Z" fill="#642B7E"/>
<path d="M122.255 207.348C122.634 207.348 122.634 207.98 122.255 207.98C121.875 207.98 121.875 207.348 122.255 207.348Z" fill="#642B7E"/>
<path d="M130.02 147.473C130.399 147.473 130.399 148.105 130.02 148.105C129.641 148.105 129.641 147.473 130.02 147.473Z" fill="white"/>
<path d="M125.091 146.084C125.47 146.084 125.47 146.716 125.091 146.716C124.711 146.716 124.711 146.084 125.091 146.084Z" fill="white"/>
<path d="M141.012 128.4C141.392 128.4 141.392 129.032 141.012 129.032C140.633 129.032 140.633 128.4 141.012 128.4Z" fill="white"/>
<path d="M123.83 119.367C124.588 119.367 124.588 120.63 123.83 120.63C123.072 120.567 123.072 119.367 123.83 119.367Z" fill="white"/>
<path d="M140.255 113.873C140.634 113.873 140.634 114.505 140.255 114.505C139.875 114.505 139.875 113.873 140.255 113.873Z" fill="white"/>
<path d="M138.356 120.506C138.735 120.506 138.735 121.138 138.356 121.138C137.977 121.138 137.977 120.506 138.356 120.506Z" fill="white"/>
<path d="M136.591 108.506C136.97 108.506 136.97 109.138 136.591 109.138C136.211 109.138 136.211 108.506 136.591 108.506Z" fill="white"/>
<path d="M130.591 109.578C130.97 109.578 130.97 110.21 130.591 110.21C130.211 110.21 130.211 109.578 130.591 109.578Z" fill="white"/>
<path d="M126.231 111.221C126.61 111.221 126.61 111.853 126.231 111.853C125.852 111.853 125.852 111.221 126.231 111.221Z" fill="white"/>
<path d="M134.567 70.168C134.946 70.168 134.946 70.8 134.567 70.8C134.188 70.8 134.188 70.168 134.567 70.168Z" fill="white"/>
<path d="M135.387 72.5039C135.767 72.5039 135.767 73.136 135.387 73.136C135.008 73.136 135.008 72.5039 135.387 72.5039Z" fill="white"/>
<path d="M133.434 72.9473C133.814 72.9473 133.814 73.5793 133.434 73.5793C133.055 73.5793 133.055 72.9473 133.434 72.9473Z" fill="white"/>
<path d="M133.114 69.9785C133.493 69.9785 133.493 70.6106 133.114 70.6106C132.735 70.6106 132.735 69.9785 133.114 69.9785Z" fill="white"/>
<path d="M133.934 68.9062C134.314 68.9062 134.314 69.5383 133.934 69.5383C133.555 69.5383 133.555 68.9062 133.934 68.9062Z" fill="white"/>
<path d="M133.177 68.2109C133.556 68.2109 133.556 68.843 133.177 68.843C132.797 68.843 132.797 68.2109 133.177 68.2109Z" fill="white"/>
<path d="M133.747 70.9258C134.126 70.9258 134.126 71.5578 133.747 71.5578C133.368 71.5578 133.368 70.9258 133.747 70.9258Z" fill="white"/>
<path d="M131.723 85.8945C132.103 85.8945 132.103 86.5266 131.723 86.5266C131.344 86.5266 131.344 85.8945 131.723 85.8945Z" fill="white"/>
<path d="M135.069 80.4011C135.196 80.4011 135.259 80.4642 135.322 80.5274C135.322 80.3379 135.385 80.1484 135.638 80.1484C136.017 80.1484 136.017 80.78 135.638 80.78C135.511 80.78 135.448 80.7169 135.385 80.6537C135.385 80.8432 135.322 81.0326 135.069 81.0326C134.69 81.0326 134.69 80.4011 135.069 80.4011Z" fill="white"/>
<path d="M133.177 82.6094C133.556 82.6094 133.556 83.2414 133.177 83.2414C132.797 83.2414 132.797 82.6094 133.177 82.6094Z" fill="white"/>
<path d="M131.919 79.8945C132.298 79.8945 132.298 80.5266 131.919 80.5266C131.539 80.5266 131.539 79.8945 131.919 79.8945Z" fill="white"/>
<path d="M138.481 86.2734C138.86 86.2734 138.86 86.9055 138.481 86.9055C138.102 86.9055 138.102 86.2734 138.481 86.2734Z" fill="white"/>
<path d="M134.692 90.6953C135.071 90.6953 135.071 91.3274 134.692 91.3274C134.313 91.3274 134.313 90.6953 134.692 90.6953Z" fill="white"/>
<path d="M132.669 92.5273C133.048 92.5273 133.048 93.1594 132.669 93.1594C132.289 93.1594 132.289 92.5273 132.669 92.5273Z" fill="white"/>
<path d="M130.591 97.0117C130.97 97.0117 130.97 97.6438 130.591 97.6438C130.211 97.6438 130.211 97.0117 130.591 97.0117Z" fill="white"/>
<path d="M132.485 101.242H132.927C133.306 101.242 133.306 101.874 132.927 101.874H132.485C132.106 101.874 132.106 101.242 132.485 101.242Z" fill="white"/>
<path d="M135.325 99.7891C135.704 99.7891 135.704 100.421 135.325 100.421C134.946 100.421 134.946 99.7891 135.325 99.7891Z" fill="white"/>
<path d="M134.63 74.4629C135.009 74.4629 135.009 75.0949 134.63 75.0949C134.187 75.0949 134.187 74.4629 134.63 74.4629Z" fill="white"/>
<path d="M131.856 96.1895C132.235 96.1895 132.235 96.8215 131.856 96.8215C131.477 96.7583 131.477 96.1895 131.856 96.1895Z" fill="white"/>
<path d="M127.872 131.621C128.251 131.621 128.251 132.253 127.872 132.253C127.493 132.253 127.493 131.621 127.872 131.621Z" fill="white"/>
</g>
</g>
<defs>
<clipPath id="clip0_1_984">
<rect width="300" height="232.421" fill="white" transform="matrix(-1 0 0 1 248 48)"/>
</clipPath>
</defs>
</svg>
