<svg width="252" height="242" viewBox="0 0 252 242" fill="none" xmlns="http://www.w3.org/2000/svg">
<circle cx="-7.375" cy="169.531" r="140.625" fill="#FFDB59"/>
<mask id="mask0_1_396" style="mask-type:alpha" maskUnits="userSpaceOnUse" x="-61" y="0" width="313" height="313">
<rect x="-60.5" width="312.5" height="312.5" fill="#C4C4C4"/>
</mask>
<g mask="url(#mask0_1_396)">
<ellipse cx="-46.1915" cy="13.9347" rx="39.3883" ry="40.6616" transform="rotate(-31.9286 -46.1915 13.9347)" fill="#FCDE86"/>
<g clip-path="url(#clip0_1_396)">
<path d="M214.842 196.611L196.953 224.031L164.422 202.896L178.305 181.416L179.617 179.482L181.551 174.992L214.842 196.611Z" fill="#EEAF9C"/>
<path d="M36.6406 124.02L46.7247 60.8906L71.7276 67.8666L78.151 126.506L36.6406 124.02Z" fill="#EEAF9C"/>
<path d="M132.211 240.221C131.036 242.293 130.208 244.434 129.655 246.644C129.517 247.197 -10.0712 246.644 -10.0712 246.644C-10.4856 247.681 -11.0381 248.647 -11.6598 249.614L-11.7288 246.644L-13.2483 189.248C-7.03215 184.552 6.64348 182.272 6.64348 182.272L10.2351 168.044L13.205 156.371C13.2741 156.164 13.2741 156.026 13.3432 155.819C13.5504 154.99 13.6885 154.23 13.7576 153.402C13.8266 153.194 13.8266 152.918 13.8266 152.711C13.8266 152.366 13.8957 152.089 13.8957 151.744C13.8957 151.537 13.8957 151.329 13.8957 151.122C13.8957 150.984 13.8957 150.846 13.8957 150.708C13.8957 150.501 13.8957 150.363 13.8957 150.155C13.8957 149.948 13.8957 149.672 13.8266 149.465C13.7576 148.774 13.6885 148.152 13.6194 147.531C13.5504 147.323 13.5504 147.047 13.4813 146.84C13.205 145.666 12.8597 144.492 12.4453 143.387C12.3762 143.248 12.3071 143.041 12.2381 142.903C12.169 142.765 12.0999 142.558 12.0309 142.42C11.9618 142.281 11.8927 142.143 11.8236 142.074C11.7546 141.867 11.6855 141.729 11.5474 141.522C11.4092 141.245 11.2711 140.969 11.133 140.693C11.0639 140.555 10.9948 140.417 10.9257 140.278C10.7876 140.002 10.6495 139.795 10.4423 139.519C10.3041 139.242 10.0969 139.035 9.95879 138.828C9.82065 138.621 9.61344 138.345 9.40624 138.137C9.19903 137.93 9.06089 137.654 8.85368 137.447C8.71555 137.239 8.50834 137.032 8.3702 136.894C8.02486 136.48 7.61044 136.065 7.19603 135.651C7.05789 135.513 6.85069 135.375 6.71255 135.236C6.50535 135.029 6.29814 134.822 6.02186 134.684C5.88372 134.546 5.74559 134.408 5.53838 134.269C5.33117 134.131 5.19304 133.993 4.98583 133.855L4.29514 133.372C4.01887 133.164 3.74259 133.026 3.46631 132.819C3.25911 132.681 3.12097 132.612 2.91376 132.474C2.77563 132.405 2.56842 132.266 2.43028 132.197C2.29214 132.128 2.08494 131.99 1.9468 131.921C1.73959 131.783 1.53239 131.714 1.25611 131.576C1.11797 131.507 0.979836 131.438 0.841698 131.369C0.496354 131.23 0.151009 131.092 -0.194335 130.954C-0.332473 130.885 -0.470612 130.816 -0.677818 130.816C-1.1613 130.609 -1.71385 130.471 -2.2664 130.333C-2.33547 130.333 -2.40454 130.333 -2.40454 130.263C-2.88802 130.125 -3.3715 130.056 -3.85498 129.918C-4.13126 129.849 -4.40753 129.849 -4.68381 129.78C-4.96008 129.78 -5.23636 129.711 -5.51264 129.711C-7.99912 129.504 -10.8309 129.918 -13.5937 130.885C-16.9781 131.99 -20.2243 133.786 -22.7798 135.789C-22.918 135.927 -23.1252 136.065 -23.2633 136.203C-23.2633 136.203 -23.2633 136.203 -23.3324 136.272C-23.7468 136.618 -24.0231 137.239 -24.4375 137.585C-24.0922 137.101 -23.5396 136.203 -23.1943 135.72C-22.0892 134.269 -21.1913 133.095 -19.948 131.714C-18.4285 130.056 -16.7709 128.468 -14.9751 126.879C-11.3144 123.633 -7.30843 120.525 -3.09523 117.693C14.8627 105.468 36.3431 97.732 39.5893 96.6269C39.8656 96.5579 40.1419 96.6269 40.28 96.8342L56.304 119.558L73.1568 96.1435C73.364 95.8672 73.7093 95.7981 74.0547 95.9363C77.5081 97.8702 97.6071 109.267 113.493 122.804C113.562 122.873 113.631 122.942 113.7 123.011C113.7 123.011 113.769 123.011 113.769 123.08C113.838 123.08 113.838 123.149 113.907 123.218C117.085 125.912 119.321 127.804 123.047 131.53C126.773 135.256 127.602 136.549 128.707 138.345C128.016 137.654 125.511 135.167 124.613 134.546C124.613 134.546 124.613 134.477 124.544 134.477C124.337 134.339 124.13 134.2 123.922 134.062C123.024 133.51 122.127 132.957 121.16 132.543C118.19 131.092 114.943 130.125 112.043 129.987C111.766 129.987 111.49 129.987 111.214 129.987C111.214 129.987 111.145 129.987 111.076 129.987C111.007 129.987 111.007 129.987 110.937 129.987C110.523 129.987 110.109 129.987 109.694 130.056C109.28 130.056 108.934 130.125 108.52 130.194C107.898 130.263 107.346 130.333 106.724 130.471L106.172 130.609C106.172 130.609 106.172 130.609 106.103 130.609C105.964 130.609 105.826 130.678 105.688 130.747C105.412 130.816 105.136 130.885 104.928 130.954C104.652 131.023 104.376 131.161 104.031 131.23C103.754 131.3 103.478 131.438 103.202 131.576C102.995 131.645 102.856 131.714 102.649 131.783C102.304 131.921 101.889 132.128 101.544 132.336C101.337 132.474 101.061 132.543 100.853 132.681C100.646 132.819 100.37 132.957 100.163 133.095C99.2648 133.648 98.436 134.2 97.6762 134.822C97.3999 135.029 97.1927 135.236 96.9855 135.444L96.9165 135.513C96.8474 135.513 96.8474 135.582 96.7783 135.651C96.7783 135.651 96.7783 135.651 96.7092 135.651C96.502 135.858 96.2258 136.065 96.0186 136.342C95.8114 136.549 95.6732 136.687 95.466 136.894C95.1207 137.239 94.7753 137.654 94.499 137.999C94.2228 138.345 93.8774 138.759 93.6011 139.173C93.3939 139.45 93.1867 139.795 92.9795 140.071C92.7723 140.348 92.6342 140.693 92.427 140.969C92.0816 141.591 91.7363 142.212 91.46 142.903C91.0456 143.87 90.7003 144.906 90.424 145.942C90.3549 146.287 90.2168 146.633 90.1477 146.978C90.0786 147.185 90.0786 147.323 90.0096 147.531C89.8024 148.429 89.7333 149.396 89.6642 150.363C89.6642 150.57 89.6642 150.708 89.6642 150.915C89.6642 151.399 89.6642 151.882 89.6642 152.366V152.504C89.6642 152.78 89.6642 152.987 89.7333 153.263C89.7333 153.332 89.7333 153.471 89.7333 153.54C89.7333 153.747 89.8024 153.954 89.8024 154.092C89.8024 154.23 89.8024 154.368 89.8714 154.576C89.8714 154.783 89.9405 154.921 89.9405 155.128V155.197C89.9405 155.405 90.0096 155.543 90.0787 155.75C90.0787 155.819 90.0786 155.888 90.1477 155.957C90.2168 156.164 90.2168 156.371 90.2858 156.648C90.2858 156.786 90.3549 156.855 90.3549 156.993C90.424 157.2 90.4931 157.408 90.4931 157.615C90.5621 157.891 90.7003 158.236 90.7693 158.513C90.8384 158.789 90.9765 159.134 91.1147 159.411C91.2528 159.825 91.46 160.17 91.5982 160.585C91.6672 160.792 91.8054 160.999 91.8744 161.137L94.7753 166.939L106.448 190.215L122.955 223.092L131.244 239.599L132.211 240.221Z" fill="#EC724B"/>
<path d="M134.795 172.367C129.615 179.55 119.669 185.559 107.444 190.118L92.8013 161.04C87.483 150.542 91.7652 137.557 102.333 132.238C105.303 130.719 108.48 130.028 111.657 129.959C111.726 129.959 111.864 129.959 111.933 129.959C117.113 129.959 122.156 131.824 126.092 135.208C128.372 138.109 130.513 141.079 132.309 143.98C134.588 147.641 136.453 151.232 137.696 154.686C139.906 161.178 138.663 167.118 134.795 172.367Z" fill="#58595B"/>
<path d="M14.3361 151.231C14.3361 152.958 14.1289 154.754 13.6454 156.481L7.08389 182.312L6.04786 186.387L4.94275 190.67L-8.52567 243.645C-8.80195 244.681 -9.14729 245.717 -9.56171 246.754C-9.97612 247.79 -10.5287 248.757 -11.1503 249.723L-11.2194 246.754L-48.7237 249.24C-49.0691 248.48 -49.7598 246.27 -49.8979 244.405C-50.2433 240.675 -50.5886 238.88 -50.1051 233.078C-49.6216 226.654 -43.7508 208.144 -43.7508 208.144L-29.4535 152.129L-29.3845 151.922L-28.3484 147.778L-28.2794 147.502V147.433V147.363L-27.934 145.913C-27.3124 143.634 -26.3454 141.285 -25.0331 139.282C-24.0662 137.763 -23.0301 136.451 -21.856 135.276C-17.5046 131.063 -11.3575 129.198 -5.07223 129.82C-4.0362 129.889 -2.93109 130.096 -1.82599 130.373C7.84365 132.928 14.3361 141.7 14.3361 151.231Z" fill="#EEAF9C"/>
<path d="M14.6092 153.579C14.3329 155.306 3.69629 217.123 3.69629 217.123C3.35095 217.882 -33.1865 201.651 -49.763 194.261C-53.9762 192.396 -55.4957 187.216 -53.0783 183.348C-43.6849 168.567 -23.3787 136.519 -22.1355 135.207C-20.9613 133.895 -19.649 132.721 -18.3367 131.823C-13.2946 128.369 -7.00938 127.609 -0.862253 129.336C0.17378 129.612 1.20981 129.958 2.24585 130.441C11.2939 134.378 16.1978 144.117 14.6092 153.579Z" fill="#EC724B"/>
<path d="M165.682 246.266L135.583 246.404C134.169 244.954 133.092 243.711 132.149 241.778C132.149 241.709 132.082 241.64 132.015 241.571L131.476 240.467L131.072 239.638L106.831 190.278L92.5564 161.214C87.3716 150.721 91.5464 137.742 101.849 132.427C104.744 130.908 107.841 130.217 110.939 130.148C111.006 130.148 111.141 130.148 111.208 130.148C116.258 130.148 121.308 131.805 125.012 135.395C126.897 137.259 128.446 139.399 129.995 141.953L131.139 144.232L136.391 154.932L158.275 199.529L159.622 202.29L169.453 222.241C173.358 230.664 171.675 239.915 165.682 246.266Z" fill="#EEAF9C"/>
<path d="M127.489 136.658C128.248 137.694 148.416 164.977 159.191 179.55C162.714 184.316 160.849 191.085 155.461 193.433C137.918 201.031 104.281 214.568 104.281 214.568C104.281 214.568 88.9482 152.82 88.7409 150.472C88.6028 148.745 88.6719 146.95 88.9481 145.361C89.9842 139.352 93.783 134.241 99.1703 130.995C100.068 130.442 101.035 129.959 102.071 129.544C111.396 125.815 121.825 128.992 127.489 136.658Z" fill="#EC724B"/>
<path d="M204.691 211.529L183.003 246.063L135.829 247.099C135 247.099 127.195 233.7 128.508 232.042L137.97 221.682L158.207 210.838L173.472 188.736L204.691 211.529Z" fill="#EEAF9C"/>
<path d="M87.2042 70.1445C78.916 81.4028 63.0302 86.0304 52.7389 78.4328C42.4476 70.8352 46.1083 54.9494 54.3966 43.6221C62.6848 32.3639 77.3274 21.7963 87.5496 29.3939C97.7718 36.9915 95.4925 58.8863 87.2042 70.1445Z" fill="#EEAF9C"/>
<path d="M46.4496 63.3072C46.2424 63.031 48.7288 58.5415 51.6988 57.3673C54.7378 56.1932 47.9691 54.1211 47.9691 54.1211C47.9691 54.1211 46.5187 62.064 46.4496 63.3072Z" fill="#642B7E"/>
<path d="M56.4652 49.8392C56.9487 52.2566 68.1379 39.8242 70.4171 34.644C71.9367 31.1906 71.4532 30.9834 71.4532 30.9834C71.1769 32.3647 83.6784 42.1035 87.7534 42.5869C94.384 43.3467 93.9006 40.653 93.9006 40.653C93.9006 40.653 94.384 37.4758 91.2069 33.1936C89.4111 30.7762 84.7835 26.2867 78.9817 26.563C73.1799 26.8392 65.237 30.7071 59.1589 37.7521C53.0809 44.8662 53.219 45.0734 53.219 45.0734L56.4652 49.8392Z" fill="#642B7E"/>
<path d="M50.9422 58.1951C54.8712 58.1951 58.0563 53.7731 58.0563 48.3183C58.0563 42.8634 54.8712 38.4414 50.9422 38.4414C47.0132 38.4414 43.8281 42.8634 43.8281 48.3183C43.8281 53.7731 47.0132 58.1951 50.9422 58.1951Z" fill="#EEAF9C"/>
<path d="M53.6343 218.643L21.172 242.334L-3.55469 213.946L24.9707 186.664L53.6343 218.643Z" fill="#EEAF9C"/>
<path d="M18.8281 194.055C18.8281 194.055 25.9422 184.524 29.4647 179.62C33.9542 173.404 39.3416 156.344 41.5518 154.617C43.762 152.89 47.3536 162.353 44.5908 168.845C41.759 175.338 41.4827 178.515 43.831 178.929C46.1794 179.344 55.2965 173.128 58.2664 170.986C61.2364 168.776 68.2123 162.284 71.1823 161.04C74.2213 159.797 79.8159 160.281 74.7739 165.599C69.7319 170.848 51.5668 187.908 51.5668 187.908C51.5668 187.908 77.8129 164.356 80.4375 163.113C83.0621 161.938 88.5877 163.043 83.3384 168.155C78.0892 173.266 57.6448 193.365 57.6448 193.365C61.858 190.947 80.1613 174.647 84.3054 172.713C88.7258 170.641 92.2483 174.854 79.2634 187.77C66.2784 200.686 64.3445 202.275 65.5187 201.446C69.2484 198.821 75.3264 195.851 78.5036 193.779C81.957 191.569 84.5126 190.118 86.3775 190.947C88.1732 191.776 84.0982 197.163 72.4946 205.314C61.3055 213.118 46.2485 224.1 45.765 223.548L18.8281 194.055Z" fill="#EEAF9C"/>
<path d="M175.266 186.179C175.266 186.179 181.965 174.921 184.037 169.741C186.04 164.492 186.869 146.396 188.32 144.255C189.839 142.114 192.257 140.318 193.914 146.603C195.71 153.441 194.398 165.39 196.608 165.044C198.818 164.699 206.623 156.687 208.695 153.924C210.698 151.162 219.47 140.318 221.818 138.384C224.166 136.45 228.932 137.762 225.893 143.771C222.854 149.78 211.665 164.354 211.665 164.354C211.665 164.354 232.247 145.222 234.25 143.426C236.253 141.63 241.295 143.288 238.049 149.228C234.734 155.168 216.5 172.711 216.5 172.711C216.5 172.711 237.497 153.372 241.71 151.645C245.923 149.918 248.548 154.062 236.53 166.15C223.821 178.996 216.431 185.765 219.332 183.555C222.992 180.792 232.178 171.537 235.079 169.396C237.98 167.255 239.707 167.876 240.743 169.465C241.71 170.984 242.677 175.267 232.938 184.246C223.199 193.225 212.77 200.615 209.731 204.414C206.692 208.282 175.266 186.179 175.266 186.179Z" fill="#EEAF9C"/>
<path d="M-2.92969 212.841L12.818 166.703" stroke="#6554C0" stroke-miterlimit="10" stroke-linecap="round"/>
<path d="M41.8979 227.208L2.11425 264.505C1.83798 264.712 1.56171 264.919 1.21636 265.127C-12.2521 274.105 -30.7625 272.033 -41.7445 260.637C-42.4351 259.946 -43.0568 259.187 -43.6784 258.427C-44.2309 257.736 -44.7144 257.045 -45.1979 256.286C-45.1979 256.286 -45.1979 256.286 -45.1979 256.217C-47.6153 252.556 -49.1348 248.481 -49.8255 244.337C-51.5522 233.493 -47.0628 222.028 -37.1859 214.983L-29.5883 216.088L-22.8887 222.373L-12.0449 216.088L14.8229 196.334L41.8979 227.208Z" fill="#EEAF9C"/>
<path d="M93.9042 52.0488C93.9042 52.0488 92.1775 65.31 91.9703 67.5893C91.7631 69.8686 85.5469 67.5893 85.5469 67.5893" stroke="#04AA9A" stroke-miterlimit="10" stroke-linecap="round"/>
<path d="M48.1094 45.0726C48.4547 44.2438 55.4997 42.3099 54.4637 50.2528" stroke="#231F20" stroke-width="0.75" stroke-miterlimit="10" stroke-linecap="round"/>
<path d="M77.6719 48.6642C77.6719 48.6642 80.7109 45.2108 84.786 47.7663" stroke="#231F20" stroke-miterlimit="10" stroke-linecap="round"/>
<path d="M78.0149 70.0758C78.0149 70.0758 73.5255 69.2469 73.5945 64.4121" stroke="#231F20" stroke-miterlimit="10" stroke-linecap="round"/>
<path d="M82.7148 58.75C83.554 58.75 84.2343 58.0697 84.2343 57.2305C84.2343 56.3912 83.554 55.7109 82.7148 55.7109C81.8756 55.7109 81.1953 56.3912 81.1953 57.2305C81.1953 58.0697 81.8756 58.75 82.7148 58.75Z" fill="#231F20"/>
<path d="M56.7466 119.806L39.6866 139.559C39.5485 139.767 39.2031 139.628 39.2031 139.352L40.4464 96.5295C40.4464 96.2532 40.7226 96.6676 40.8608 96.8748L56.7466 119.46C56.8157 119.598 56.8157 119.737 56.7466 119.806Z" stroke="#FACB41" stroke-miterlimit="10"/>
<path d="M56.7891 119.075L72.744 142.765L74.4707 95.5912C74.5398 95.1077 74.1254 94.9695 73.8491 95.3149L56.7891 119.075Z" stroke="#FACB41" stroke-miterlimit="10"/>
<path d="M118.01 210.077L92.1094 157.516" stroke="#6554C0" stroke-miterlimit="10" stroke-linecap="round"/>
<path d="M162.629 204.553L148.125 223.132" stroke="#C1231F" stroke-miterlimit="10" stroke-linecap="round"/>
<path d="M70.4021 152.613C70.4021 158.631 65.5236 163.509 59.5057 163.509C53.4878 163.509 48.6094 158.631 48.6094 152.613C48.6094 146.595 53.4878 141.717 59.5057 141.717C65.5236 141.717 70.4021 146.595 70.4021 152.613Z" stroke="#04AA9A"/>
<path d="M222.793 131.063L214.297 151.024L192.679 149.09L187.844 127.886L206.423 116.766L222.793 131.063Z" fill="#4646FF"/>
<path d="M230.751 227.527V271.284H178.016V227.527H186.075C185.063 229.954 184.475 232.609 184.475 235.385C184.475 246.366 193.402 255.293 204.383 255.293C215.365 255.293 224.292 246.366 224.292 235.385C224.292 232.609 223.704 229.954 222.692 227.527H230.751Z" stroke="#FFAB00"/>
<path d="M201.339 219.541L201.341 219.541C204.104 219.477 206.756 218.887 209.135 217.82L209.314 225.872L165.559 226.682L164.61 173.946L208.366 173.136L208.485 181.183C206.054 180.182 203.4 179.66 200.628 179.725C189.649 179.938 180.863 189.004 181.076 199.988C181.289 210.968 190.356 219.754 201.339 219.541Z" stroke="#00B8D9"/>
<path d="M-33.25 86.5156C-33.1809 86.5847 -33.1809 86.5847 -33.1809 86.5847C-33.1119 86.6538 -33.0428 86.7919 -32.9047 86.93C-32.9047 86.9991 -32.8356 86.9991 -32.7665 87.0682C-32.3521 87.6207 -31.5923 88.5186 -30.6254 89.6928C-30.3491 90.0381 -30.0038 90.3835 -29.6584 90.7979C-29.3131 91.2814 -28.8987 91.7649 -28.4152 92.2483C-28.208 92.4555 -28.0008 92.7318 -27.7936 92.939C-27.3101 93.4916 -26.8266 94.0441 -26.274 94.6657L-26.205 94.7348C-26.0668 94.873 -25.9287 95.0111 -25.7906 95.1492C-22.6134 98.8099 -18.5383 103.161 -13.9798 107.513C-12.7365 108.756 -11.4242 109.999 -10.1119 111.173C-7.62545 113.452 -5.0699 115.663 -2.44529 117.666C4.04719 122.708 10.7469 126.714 16.7559 128.095" stroke="#8DCFB7" stroke-miterlimit="10"/>
<path d="M129.68 116.214C136.31 112.692 142.665 108.616 147.154 104.196C150.4 100.95 152.749 97.5655 153.508 94.043" stroke="#8DCFB7" stroke-miterlimit="10"/>
<path d="M129.674 116.215C124.563 118.909 119.244 121.257 114.548 123.191C110.127 124.987 106.121 126.437 103.151 127.473H103.082C102.323 127.749 101.632 127.957 101.01 128.164C100.941 128.164 100.803 128.233 100.734 128.302C99.3526 128.785 98.4547 129.062 98.1094 129.131" stroke="#8DCFB7" stroke-miterlimit="10"/>
<path d="M97.9062 129.198C97.9753 129.198 97.9753 129.198 97.9062 129.198C97.9753 129.198 97.9753 129.198 97.9753 129.198H98.0444C98.3897 129.129 98.8041 128.991 99.2876 128.853H99.3567C100.462 128.508 101.705 128.093 103.017 127.61H103.086C104.261 127.195 105.504 126.712 106.747 126.228C106.816 126.228 106.885 126.159 106.954 126.159C109.303 125.261 111.858 124.225 114.276 123.189C117.453 121.808 120.561 120.496 123.116 119.322C123.185 119.322 123.185 119.322 123.185 119.252C126.846 117.595 129.402 116.421 129.609 116.352" stroke="#8DCFB7" stroke-miterlimit="10"/>
<path d="M165.521 76.5007C165.521 76.5007 168.836 63.2395 168.698 58.75C168.698 58.75 168.215 84.3055 152.812 96.5997" stroke="#D6DE23" stroke-miterlimit="10"/>
<g style="mix-blend-mode:color-dodge">
<path d="M123.399 119.047C123.33 119.047 123.261 119.116 123.192 119.116C123.123 119.116 123.123 119.116 123.123 119.185C120.222 120.566 117.252 121.879 114.351 123.122C111.864 124.158 109.378 125.125 106.961 126.092C106.891 126.092 106.822 126.161 106.753 126.161C104.75 126.921 102.816 127.611 100.952 128.233C100.882 128.233 100.744 128.302 100.675 128.371C100.261 128.509 99.7774 128.647 99.3629 128.855H99.2939C90.6603 131.825 84.375 133.482 84.375 133.206" stroke="#8DCFB7" stroke-miterlimit="10"/>
</g>
<path d="M148.336 98.3943C151.197 98.3943 153.517 96.2296 153.517 93.5594C153.517 90.8892 151.197 88.7246 148.336 88.7246C145.475 88.7246 143.156 90.8892 143.156 93.5594C143.156 96.2296 145.475 98.3943 148.336 98.3943Z" stroke="#D6DE23" stroke-miterlimit="10"/>
<path d="M75.1147 149.437C75.6673 148.953 76.2198 148.401 76.7033 147.917C77.3249 147.365 76.358 146.536 75.8054 147.088C75.2528 147.572 74.7003 148.125 74.2168 148.608C73.5952 149.161 74.5622 149.989 75.1147 149.437Z" fill="white"/>
<path d="M77.7425 151.164C77.1208 151.233 76.4992 151.371 75.8776 151.44C75.0488 151.578 75.4632 152.752 76.2229 152.614L78.0878 152.338C78.9166 152.2 78.5022 151.025 77.7425 151.164Z" fill="white"/>
<path d="M77.1188 156.067C76.7044 155.722 76.29 155.307 75.8755 154.962C75.323 154.409 74.4251 155.376 75.0467 155.929C75.4611 156.274 75.8755 156.689 76.29 157.034C76.8425 157.517 77.7404 156.62 77.1188 156.067Z" fill="white"/>
<mask id="mask1_1_396" style="mask-type:alpha" maskUnits="userSpaceOnUse" x="43" y="134" width="23" height="22">
<path d="M54.4404 155.533C60.3014 155.533 65.0526 150.782 65.0526 144.921C65.0526 139.06 60.3014 134.309 54.4404 134.309C48.5794 134.309 43.8281 139.06 43.8281 144.921C43.8281 150.782 48.5794 155.533 54.4404 155.533Z" fill="#04AA9A"/>
</mask>
<g mask="url(#mask1_1_396)">
<path d="M43.0456 137.093C43.7008 137.093 44.2319 136.562 44.2319 135.907C44.2319 135.252 43.7008 134.721 43.0456 134.721C42.3905 134.721 41.8594 135.252 41.8594 135.907C41.8594 136.562 42.3905 137.093 43.0456 137.093Z" fill="#AEF7FF"/>
<path d="M45.7331 137.093C46.3883 137.093 46.9194 136.562 46.9194 135.907C46.9194 135.252 46.3883 134.721 45.7331 134.721C45.078 134.721 44.5469 135.252 44.5469 135.907C44.5469 136.562 45.078 137.093 45.7331 137.093Z" fill="#AEF7FF"/>
<path d="M48.4362 137.093C49.0914 137.093 49.6225 136.562 49.6225 135.907C49.6225 135.252 49.0914 134.721 48.4362 134.721C47.7811 134.721 47.25 135.252 47.25 135.907C47.25 136.562 47.7811 137.093 48.4362 137.093Z" fill="#AEF7FF"/>
<path d="M51.1394 137.093C51.7945 137.093 52.3256 136.562 52.3256 135.907C52.3256 135.252 51.7945 134.721 51.1394 134.721C50.4842 134.721 49.9531 135.252 49.9531 135.907C49.9531 136.562 50.4842 137.093 51.1394 137.093Z" fill="#AEF7FF"/>
<path d="M53.8425 137.093C54.4977 137.093 55.0288 136.562 55.0288 135.907C55.0288 135.252 54.4977 134.721 53.8425 134.721C53.1874 134.721 52.6562 135.252 52.6562 135.907C52.6562 136.562 53.1874 137.093 53.8425 137.093Z" fill="#AEF7FF"/>
<path d="M56.5378 137.093C57.193 137.093 57.7241 136.562 57.7241 135.907C57.7241 135.252 57.193 134.721 56.5378 134.721C55.8827 134.721 55.3516 135.252 55.3516 135.907C55.3516 136.562 55.8827 137.093 56.5378 137.093Z" fill="#AEF7FF"/>
<path d="M59.2331 137.093C59.8883 137.093 60.4194 136.562 60.4194 135.907C60.4194 135.252 59.8883 134.721 59.2331 134.721C58.578 134.721 58.0469 135.252 58.0469 135.907C58.0469 136.562 58.578 137.093 59.2331 137.093Z" fill="#AEF7FF"/>
<path d="M61.9285 137.093C62.5836 137.093 63.1147 136.562 63.1147 135.907C63.1147 135.252 62.5836 134.72 61.9285 134.72C61.2733 134.72 60.7422 135.252 60.7422 135.907C60.7422 136.562 61.2733 137.093 61.9285 137.093Z" fill="#AEF7FF"/>
<path d="M64.6316 137.093C65.2867 137.093 65.8178 136.562 65.8178 135.907C65.8178 135.252 65.2867 134.721 64.6316 134.721C63.9764 134.721 63.4453 135.252 63.4453 135.907C63.4453 136.562 63.9764 137.093 64.6316 137.093Z" fill="#AEF7FF"/>
<path d="M43.0456 139.902C43.7008 139.902 44.2319 139.371 44.2319 138.716C44.2319 138.06 43.7008 137.529 43.0456 137.529C42.3905 137.529 41.8594 138.06 41.8594 138.716C41.8594 139.371 42.3905 139.902 43.0456 139.902Z" fill="#AEF7FF"/>
<path d="M45.7331 139.902C46.3883 139.902 46.9194 139.371 46.9194 138.716C46.9194 138.06 46.3883 137.529 45.7331 137.529C45.078 137.529 44.5469 138.06 44.5469 138.716C44.5469 139.371 45.078 139.902 45.7331 139.902Z" fill="#AEF7FF"/>
<path d="M48.4362 139.902C49.0914 139.902 49.6225 139.371 49.6225 138.716C49.6225 138.06 49.0914 137.529 48.4362 137.529C47.7811 137.529 47.25 138.06 47.25 138.716C47.25 139.371 47.7811 139.902 48.4362 139.902Z" fill="#AEF7FF"/>
<path d="M51.1394 139.902C51.7945 139.902 52.3256 139.371 52.3256 138.716C52.3256 138.06 51.7945 137.529 51.1394 137.529C50.4842 137.529 49.9531 138.06 49.9531 138.716C49.9531 139.371 50.4842 139.902 51.1394 139.902Z" fill="#AEF7FF"/>
<path d="M53.8425 139.902C54.4977 139.902 55.0288 139.371 55.0288 138.716C55.0288 138.06 54.4977 137.529 53.8425 137.529C53.1874 137.529 52.6562 138.06 52.6562 138.716C52.6562 139.371 53.1874 139.902 53.8425 139.902Z" fill="#AEF7FF"/>
<path d="M56.5378 139.902C57.193 139.902 57.7241 139.371 57.7241 138.716C57.7241 138.06 57.193 137.529 56.5378 137.529C55.8827 137.529 55.3516 138.06 55.3516 138.716C55.3516 139.371 55.8827 139.902 56.5378 139.902Z" fill="#AEF7FF"/>
<path d="M59.2331 139.902C59.8883 139.902 60.4194 139.371 60.4194 138.716C60.4194 138.06 59.8883 137.529 59.2331 137.529C58.578 137.529 58.0469 138.06 58.0469 138.716C58.0469 139.371 58.578 139.902 59.2331 139.902Z" fill="#AEF7FF"/>
<path d="M61.9285 139.902C62.5836 139.902 63.1147 139.371 63.1147 138.716C63.1147 138.06 62.5836 137.529 61.9285 137.529C61.2733 137.529 60.7422 138.06 60.7422 138.716C60.7422 139.371 61.2733 139.902 61.9285 139.902Z" fill="#AEF7FF"/>
<path d="M64.6316 139.902C65.2867 139.902 65.8178 139.371 65.8178 138.716C65.8178 138.06 65.2867 137.529 64.6316 137.529C63.9764 137.529 63.4453 138.06 63.4453 138.716C63.4453 139.371 63.9764 139.902 64.6316 139.902Z" fill="#AEF7FF"/>
<path d="M43.0456 142.71C43.7008 142.71 44.2319 142.179 44.2319 141.524C44.2319 140.869 43.7008 140.338 43.0456 140.338C42.3905 140.338 41.8594 140.869 41.8594 141.524C41.8594 142.179 42.3905 142.71 43.0456 142.71Z" fill="#AEF7FF"/>
<path d="M45.7331 142.71C46.3883 142.71 46.9194 142.179 46.9194 141.524C46.9194 140.869 46.3883 140.338 45.7331 140.338C45.078 140.338 44.5469 140.869 44.5469 141.524C44.5469 142.179 45.078 142.71 45.7331 142.71Z" fill="#AEF7FF"/>
<path d="M48.4362 142.71C49.0914 142.71 49.6225 142.179 49.6225 141.524C49.6225 140.869 49.0914 140.338 48.4362 140.338C47.7811 140.338 47.25 140.869 47.25 141.524C47.25 142.179 47.7811 142.71 48.4362 142.71Z" fill="#AEF7FF"/>
<path d="M51.1394 142.71C51.7945 142.71 52.3256 142.179 52.3256 141.524C52.3256 140.869 51.7945 140.338 51.1394 140.338C50.4842 140.338 49.9531 140.869 49.9531 141.524C49.9531 142.179 50.4842 142.71 51.1394 142.71Z" fill="#AEF7FF"/>
<path d="M53.8425 142.71C54.4977 142.71 55.0288 142.179 55.0288 141.524C55.0288 140.869 54.4977 140.338 53.8425 140.338C53.1874 140.338 52.6562 140.869 52.6562 141.524C52.6562 142.179 53.1874 142.71 53.8425 142.71Z" fill="#AEF7FF"/>
<path d="M56.5378 142.71C57.193 142.71 57.7241 142.179 57.7241 141.524C57.7241 140.869 57.193 140.338 56.5378 140.338C55.8827 140.338 55.3516 140.869 55.3516 141.524C55.3516 142.179 55.8827 142.71 56.5378 142.71Z" fill="#AEF7FF"/>
<path d="M59.2331 142.71C59.8883 142.71 60.4194 142.179 60.4194 141.524C60.4194 140.869 59.8883 140.338 59.2331 140.338C58.578 140.338 58.0469 140.869 58.0469 141.524C58.0469 142.179 58.578 142.71 59.2331 142.71Z" fill="#AEF7FF"/>
<path d="M61.9285 142.71C62.5836 142.71 63.1147 142.179 63.1147 141.524C63.1147 140.869 62.5836 140.338 61.9285 140.338C61.2733 140.338 60.7422 140.869 60.7422 141.524C60.7422 142.179 61.2733 142.71 61.9285 142.71Z" fill="#AEF7FF"/>
<path d="M64.6316 142.71C65.2867 142.71 65.8178 142.179 65.8178 141.524C65.8178 140.869 65.2867 140.338 64.6316 140.338C63.9764 140.338 63.4453 140.869 63.4453 141.524C63.4453 142.179 63.9764 142.71 64.6316 142.71Z" fill="#AEF7FF"/>
<path d="M43.0456 145.513C43.7008 145.513 44.2319 144.982 44.2319 144.327C44.2319 143.672 43.7008 143.141 43.0456 143.141C42.3905 143.141 41.8594 143.672 41.8594 144.327C41.8594 144.982 42.3905 145.513 43.0456 145.513Z" fill="#AEF7FF"/>
<path d="M45.741 145.513C46.3961 145.513 46.9272 144.982 46.9272 144.327C46.9272 143.672 46.3961 143.141 45.741 143.141C45.0858 143.141 44.5547 143.672 44.5547 144.327C44.5547 144.982 45.0858 145.513 45.741 145.513Z" fill="#AEF7FF"/>
<path d="M48.4362 145.513C49.0914 145.513 49.6225 144.982 49.6225 144.327C49.6225 143.672 49.0914 143.141 48.4362 143.141C47.7811 143.141 47.25 143.672 47.25 144.327C47.25 144.982 47.7811 145.513 48.4362 145.513Z" fill="#AEF7FF"/>
<path d="M51.1394 145.513C51.7945 145.513 52.3256 144.982 52.3256 144.327C52.3256 143.672 51.7945 143.141 51.1394 143.141C50.4842 143.141 49.9531 143.672 49.9531 144.327C49.9531 144.982 50.4842 145.513 51.1394 145.513Z" fill="#AEF7FF"/>
<path d="M53.8425 145.513C54.4977 145.513 55.0288 144.982 55.0288 144.327C55.0288 143.672 54.4977 143.141 53.8425 143.141C53.1874 143.141 52.6562 143.672 52.6562 144.327C52.6562 144.982 53.1874 145.513 53.8425 145.513Z" fill="#AEF7FF"/>
<path d="M56.5378 145.513C57.193 145.513 57.7241 144.982 57.7241 144.327C57.7241 143.672 57.193 143.141 56.5378 143.141C55.8827 143.141 55.3516 143.672 55.3516 144.327C55.3516 144.982 55.8827 145.513 56.5378 145.513Z" fill="#AEF7FF"/>
<path d="M59.2331 145.513C59.8883 145.513 60.4194 144.982 60.4194 144.327C60.4194 143.672 59.8883 143.141 59.2331 143.141C58.578 143.141 58.0469 143.672 58.0469 144.327C58.0469 144.982 58.578 145.513 59.2331 145.513Z" fill="#AEF7FF"/>
<path d="M61.9285 145.513C62.5836 145.513 63.1147 144.982 63.1147 144.327C63.1147 143.672 62.5836 143.141 61.9285 143.141C61.2733 143.141 60.7422 143.672 60.7422 144.327C60.7422 144.982 61.2733 145.513 61.9285 145.513Z" fill="#AEF7FF"/>
<path d="M64.6316 145.513C65.2867 145.513 65.8178 144.982 65.8178 144.327C65.8178 143.672 65.2867 143.141 64.6316 143.141C63.9764 143.141 63.4453 143.672 63.4453 144.327C63.4453 144.982 63.9764 145.513 64.6316 145.513Z" fill="#AEF7FF"/>
<path d="M43.0456 148.322C43.7008 148.322 44.2319 147.791 44.2319 147.135C44.2319 146.48 43.7008 145.949 43.0456 145.949C42.3905 145.949 41.8594 146.48 41.8594 147.135C41.8594 147.791 42.3905 148.322 43.0456 148.322Z" fill="#AEF7FF"/>
<path d="M45.7331 148.322C46.3883 148.322 46.9194 147.791 46.9194 147.135C46.9194 146.48 46.3883 145.949 45.7331 145.949C45.078 145.949 44.5469 146.48 44.5469 147.135C44.5469 147.791 45.078 148.322 45.7331 148.322Z" fill="#AEF7FF"/>
<path d="M48.4362 148.322C49.0914 148.322 49.6225 147.791 49.6225 147.135C49.6225 146.48 49.0914 145.949 48.4362 145.949C47.7811 145.949 47.25 146.48 47.25 147.135C47.25 147.791 47.7811 148.322 48.4362 148.322Z" fill="#AEF7FF"/>
<path d="M51.1394 148.322C51.7945 148.322 52.3256 147.791 52.3256 147.135C52.3256 146.48 51.7945 145.949 51.1394 145.949C50.4842 145.949 49.9531 146.48 49.9531 147.135C49.9531 147.791 50.4842 148.322 51.1394 148.322Z" fill="#AEF7FF"/>
<path d="M53.8425 148.322C54.4977 148.322 55.0288 147.791 55.0288 147.135C55.0288 146.48 54.4977 145.949 53.8425 145.949C53.1874 145.949 52.6562 146.48 52.6562 147.135C52.6562 147.791 53.1874 148.322 53.8425 148.322Z" fill="#AEF7FF"/>
<path d="M56.5378 148.322C57.193 148.322 57.7241 147.791 57.7241 147.135C57.7241 146.48 57.193 145.949 56.5378 145.949C55.8827 145.949 55.3516 146.48 55.3516 147.135C55.3516 147.791 55.8827 148.322 56.5378 148.322Z" fill="#AEF7FF"/>
<path d="M59.2331 148.322C59.8883 148.322 60.4194 147.791 60.4194 147.135C60.4194 146.48 59.8883 145.949 59.2331 145.949C58.578 145.949 58.0469 146.48 58.0469 147.135C58.0469 147.791 58.578 148.322 59.2331 148.322Z" fill="#AEF7FF"/>
<path d="M61.9285 148.322C62.5836 148.322 63.1147 147.791 63.1147 147.135C63.1147 146.48 62.5836 145.949 61.9285 145.949C61.2733 145.949 60.7422 146.48 60.7422 147.135C60.7422 147.791 61.2733 148.322 61.9285 148.322Z" fill="#AEF7FF"/>
<path d="M64.6316 148.322C65.2867 148.322 65.8178 147.791 65.8178 147.135C65.8178 146.48 65.2867 145.949 64.6316 145.949C63.9764 145.949 63.4453 146.48 63.4453 147.135C63.4453 147.791 63.9764 148.322 64.6316 148.322Z" fill="#AEF7FF"/>
<path d="M43.0456 151.13C43.7008 151.13 44.2319 150.599 44.2319 149.944C44.2319 149.289 43.7008 148.758 43.0456 148.758C42.3905 148.758 41.8594 149.289 41.8594 149.944C41.8594 150.599 42.3905 151.13 43.0456 151.13Z" fill="#AEF7FF"/>
<path d="M45.7331 151.13C46.3883 151.13 46.9194 150.599 46.9194 149.944C46.9194 149.289 46.3883 148.758 45.7331 148.758C45.078 148.758 44.5469 149.289 44.5469 149.944C44.5469 150.599 45.078 151.13 45.7331 151.13Z" fill="#AEF7FF"/>
<path d="M48.4362 151.13C49.0914 151.13 49.6225 150.599 49.6225 149.944C49.6225 149.289 49.0914 148.758 48.4362 148.758C47.7811 148.758 47.25 149.289 47.25 149.944C47.25 150.599 47.7811 151.13 48.4362 151.13Z" fill="#AEF7FF"/>
<path d="M51.1394 151.13C51.7945 151.13 52.3256 150.599 52.3256 149.944C52.3256 149.289 51.7945 148.758 51.1394 148.758C50.4842 148.758 49.9531 149.289 49.9531 149.944C49.9531 150.599 50.4842 151.13 51.1394 151.13Z" fill="#AEF7FF"/>
<path d="M53.8425 151.13C54.4977 151.13 55.0288 150.599 55.0288 149.944C55.0288 149.289 54.4977 148.758 53.8425 148.758C53.1874 148.758 52.6562 149.289 52.6562 149.944C52.6562 150.599 53.1874 151.13 53.8425 151.13Z" fill="#AEF7FF"/>
<path d="M56.5378 151.13C57.193 151.13 57.7241 150.599 57.7241 149.944C57.7241 149.289 57.193 148.758 56.5378 148.758C55.8827 148.758 55.3516 149.289 55.3516 149.944C55.3516 150.599 55.8827 151.13 56.5378 151.13Z" fill="#AEF7FF"/>
<path d="M59.2331 151.13C59.8883 151.13 60.4194 150.599 60.4194 149.944C60.4194 149.289 59.8883 148.758 59.2331 148.758C58.578 148.758 58.0469 149.289 58.0469 149.944C58.0469 150.599 58.578 151.13 59.2331 151.13Z" fill="#AEF7FF"/>
<path d="M61.9285 151.13C62.5836 151.13 63.1147 150.599 63.1147 149.944C63.1147 149.289 62.5836 148.758 61.9285 148.758C61.2733 148.758 60.7422 149.289 60.7422 149.944C60.7422 150.599 61.2733 151.13 61.9285 151.13Z" fill="#AEF7FF"/>
<path d="M64.6316 151.13C65.2867 151.13 65.8178 150.599 65.8178 149.944C65.8178 149.289 65.2867 148.758 64.6316 148.758C63.9764 148.758 63.4453 149.289 63.4453 149.944C63.4453 150.599 63.9764 151.13 64.6316 151.13Z" fill="#AEF7FF"/>
<path d="M43.0456 153.931C43.7008 153.931 44.2319 153.4 44.2319 152.745C44.2319 152.09 43.7008 151.559 43.0456 151.559C42.3905 151.559 41.8594 152.09 41.8594 152.745C41.8594 153.4 42.3905 153.931 43.0456 153.931Z" fill="#AEF7FF"/>
<path d="M45.741 153.931C46.3961 153.931 46.9272 153.4 46.9272 152.745C46.9272 152.09 46.3961 151.559 45.741 151.559C45.0858 151.559 44.5547 152.09 44.5547 152.745C44.5547 153.4 45.0858 153.931 45.741 153.931Z" fill="#AEF7FF"/>
<path d="M48.4362 153.931C49.0914 153.931 49.6225 153.4 49.6225 152.745C49.6225 152.09 49.0914 151.559 48.4362 151.559C47.7811 151.559 47.25 152.09 47.25 152.745C47.25 153.4 47.7811 153.931 48.4362 153.931Z" fill="#AEF7FF"/>
<path d="M51.1394 153.931C51.7945 153.931 52.3256 153.4 52.3256 152.745C52.3256 152.09 51.7945 151.559 51.1394 151.559C50.4842 151.559 49.9531 152.09 49.9531 152.745C49.9531 153.4 50.4842 153.931 51.1394 153.931Z" fill="#AEF7FF"/>
<path d="M53.8425 153.931C54.4977 153.931 55.0288 153.4 55.0288 152.745C55.0288 152.09 54.4977 151.559 53.8425 151.559C53.1874 151.559 52.6562 152.09 52.6562 152.745C52.6562 153.4 53.1874 153.931 53.8425 153.931Z" fill="#AEF7FF"/>
<path d="M56.5378 153.931C57.193 153.931 57.7241 153.4 57.7241 152.745C57.7241 152.09 57.193 151.559 56.5378 151.559C55.8827 151.559 55.3516 152.09 55.3516 152.745C55.3516 153.4 55.8827 153.931 56.5378 153.931Z" fill="#AEF7FF"/>
<path d="M59.2331 153.931C59.8883 153.931 60.4194 153.4 60.4194 152.745C60.4194 152.09 59.8883 151.559 59.2331 151.559C58.578 151.559 58.0469 152.09 58.0469 152.745C58.0469 153.4 58.578 153.931 59.2331 153.931Z" fill="#AEF7FF"/>
<path d="M61.9285 153.931C62.5836 153.931 63.1147 153.4 63.1147 152.745C63.1147 152.09 62.5836 151.559 61.9285 151.559C61.2733 151.559 60.7422 152.09 60.7422 152.745C60.7422 153.4 61.2733 153.931 61.9285 153.931Z" fill="#AEF7FF"/>
<path d="M64.6316 153.931C65.2867 153.931 65.8178 153.4 65.8178 152.745C65.8178 152.09 65.2867 151.559 64.6316 151.559C63.9764 151.559 63.4453 152.09 63.4453 152.745C63.4453 153.4 63.9764 153.931 64.6316 153.931Z" fill="#AEF7FF"/>
<path d="M43.0456 156.74C43.7008 156.74 44.2319 156.209 44.2319 155.553C44.2319 154.898 43.7008 154.367 43.0456 154.367C42.3905 154.367 41.8594 154.898 41.8594 155.553C41.8594 156.209 42.3905 156.74 43.0456 156.74Z" fill="#AEF7FF"/>
<path d="M45.741 156.74C46.3961 156.74 46.9272 156.209 46.9272 155.553C46.9272 154.898 46.3961 154.367 45.741 154.367C45.0858 154.367 44.5547 154.898 44.5547 155.553C44.5547 156.209 45.0858 156.74 45.741 156.74Z" fill="#AEF7FF"/>
<path d="M48.4362 156.74C49.0914 156.74 49.6225 156.209 49.6225 155.553C49.6225 154.898 49.0914 154.367 48.4362 154.367C47.7811 154.367 47.25 154.898 47.25 155.553C47.25 156.209 47.7811 156.74 48.4362 156.74Z" fill="#AEF7FF"/>
<path d="M51.1394 156.74C51.7945 156.74 52.3256 156.209 52.3256 155.553C52.3256 154.898 51.7945 154.367 51.1394 154.367C50.4842 154.367 49.9531 154.898 49.9531 155.553C49.9531 156.209 50.4842 156.74 51.1394 156.74Z" fill="#AEF7FF"/>
<path d="M53.8425 156.74C54.4977 156.74 55.0288 156.209 55.0288 155.553C55.0288 154.898 54.4977 154.367 53.8425 154.367C53.1874 154.367 52.6562 154.898 52.6562 155.553C52.6562 156.209 53.1874 156.74 53.8425 156.74Z" fill="#AEF7FF"/>
<path d="M56.5378 156.74C57.193 156.74 57.7241 156.209 57.7241 155.553C57.7241 154.898 57.193 154.367 56.5378 154.367C55.8827 154.367 55.3516 154.898 55.3516 155.553C55.3516 156.209 55.8827 156.74 56.5378 156.74Z" fill="#AEF7FF"/>
<path d="M59.2331 156.74C59.8883 156.74 60.4194 156.209 60.4194 155.553C60.4194 154.898 59.8883 154.367 59.2331 154.367C58.578 154.367 58.0469 154.898 58.0469 155.553C58.0469 156.209 58.578 156.74 59.2331 156.74Z" fill="#AEF7FF"/>
<path d="M61.9285 156.74C62.5836 156.74 63.1147 156.209 63.1147 155.553C63.1147 154.898 62.5836 154.367 61.9285 154.367C61.2733 154.367 60.7422 154.898 60.7422 155.553C60.7422 156.209 61.2733 156.74 61.9285 156.74Z" fill="#AEF7FF"/>
<path d="M64.6316 156.74C65.2867 156.74 65.8178 156.209 65.8178 155.553C65.8178 154.898 65.2867 154.367 64.6316 154.367C63.9764 154.367 63.4453 154.898 63.4453 155.553C63.4453 156.209 63.9764 156.74 64.6316 156.74Z" fill="#AEF7FF"/>
</g>
<path d="M199.014 226.238L217.9 195.43L235.332 226.417L199.014 226.238Z" stroke="#951DDB"/>
</g>
</g>
<defs>
<clipPath id="clip0_1_396">
<rect width="299.413" height="258.594" fill="white" transform="translate(-54.25 26.5625)"/>
</clipPath>
</defs>
</svg>
